<?xml version="1.0" encoding="UTF-8" standalone="no"?>
<svg
   xmlns:dc="http://purl.org/dc/elements/1.1/"
   xmlns:cc="http://creativecommons.org/ns#"
   xmlns:rdf="http://www.w3.org/1999/02/22-rdf-syntax-ns#"
   xmlns:svg="http://www.w3.org/2000/svg"
   xmlns="http://www.w3.org/2000/svg"
   viewBox="0 0 274.53333 129.90668"
   height="129.90668"
   width="274.53333"
   xml:space="preserve"
   id="svg2"
   version="1.1"><metadata
     id="metadata8"><rdf:RDF><cc:Work
         rdf:about=""><dc:format>image/svg+xml</dc:format><dc:type
           rdf:resource="http://purl.org/dc/dcmitype/StillImage" /></cc:Work></rdf:RDF></metadata><defs
     id="defs6" /><g
     transform="matrix(1.3333333,0,0,-1.3333333,0,129.90667)"
     id="g10"><g
       transform="scale(0.1)"
       id="g12"><path
         id="path14"
         style="fill:#ec0382;fill-opacity:1;fill-rule:nonzero;stroke:none"
         d="m 1369.74,765.535 h -95.02 v -83 c 0,0 41.65,-0.055 41.97,-0.066 13.39,-0.332 21.03,-7.293 21.03,-21.934 V 293.496 l 96.02,20.996 v 387.047 c 0,45 -19,63.996 -64,63.996" /><path
         id="path16"
         style="fill:#ec0382;fill-opacity:1;fill-rule:nonzero;stroke:none"
         d="m 1316.94,918.652 c 0,14.981 5.3,27.985 15.88,39.063 10.57,11.074 24.01,16.601 40.28,16.601 15.29,0 28.49,-5.371 39.55,-16.117 11.07,-10.738 16.6,-23.922 16.6,-39.547 0,-15.625 -5.53,-28.89 -16.6,-39.785 -11.06,-10.922 -24.26,-16.371 -39.55,-16.371 -15.63,0 -28.89,5.527 -39.79,16.606 -10.92,11.07 -16.37,24.253 -16.37,39.55" /><path
         id="path18"
         style="fill:#ec0382;fill-opacity:1;fill-rule:nonzero;stroke:none"
         d="m 838.727,641.336 c -32.161,-32.227 -51.895,-76.25 -51.914,-125.352 v 0 c 0.019,-49.082 19.753,-93.113 51.914,-125.332 v 0 c 32.226,-32.156 76.238,-51.894 125.359,-51.922 v 0 -38.378 c 100.964,19.941 177.054,108.82 177.254,215.632 v 0 c -0.02,49.102 -19.78,93.125 -51.93,125.352 v 0 c -32.2,32.156 -76.26,51.902 -125.324,51.922 v 0 c -49.121,-0.02 -93.133,-19.766 -125.359,-51.922 z m 82.742,-389.207 c -56.727,9.101 -107.645,36.074 -146.375,74.883 v 0 c -48.301,48.23 -78.301,115.312 -78.281,188.972 v 0 c -0.02,73.672 29.98,140.789 78.281,188.993 v 0 c 48.203,48.281 115.32,78.293 188.992,78.281 v 0 c 73.664,0.012 140.754,-30 188.954,-78.281 v 0 c 48.3,-48.204 78.32,-115.321 78.3,-188.993 v 0 C 1231.3,344.852 1092.62,206.172 921.469,206.133 v 0 45.996 0" /><path
         id="path20"
         style="fill:#880141;fill-opacity:1;fill-rule:nonzero;stroke:none"
         d="m 921.527,296.055 42.598,42.675 v -38.39 z" /><path
         id="path22"
         style="fill:#880141;fill-opacity:1;fill-rule:nonzero;stroke:none"
         d="m 1316.69,682.469 c 13.39,-0.332 21.03,-7.293 21.03,-21.934 v -75.164 l 29.26,97.098 h -50.29" /><path
         id="path24"
         style="fill:#ec0382;fill-opacity:1;fill-rule:nonzero;stroke:none"
         d="m 1666.38,641.336 c -32.15,-32.227 -51.88,-76.25 -51.92,-125.352 v 0 c 0.04,-49.082 19.77,-93.113 51.92,-125.332 v 0 c 32.22,-32.156 76.25,-51.894 125.35,-51.922 v 0 -38.378 c 100.98,19.941 177.05,108.82 177.24,215.632 v 0 c -0.01,49.102 -19.76,93.125 -51.91,125.352 v 0 c -32.21,32.156 -76.25,51.902 -125.33,51.922 v 0 c -49.1,-0.02 -93.13,-19.766 -125.35,-51.922 z m 82.75,-389.207 c -56.74,9.101 -107.64,36.074 -146.37,74.883 v 0 c -48.34,48.23 -78.34,115.312 -78.32,188.972 v 0 c -0.02,73.672 29.98,140.789 78.32,188.993 v 0 c 48.21,48.281 115.3,78.293 188.97,78.281 v 0 c 73.65,0.012 140.76,-30 188.96,-78.281 v 0 c 48.3,-48.204 78.32,-115.321 78.3,-188.993 v 0 C 2058.96,344.852 1920.26,206.172 1749.13,206.133 v 0 45.996 0" /><path
         id="path26"
         style="fill:#880141;fill-opacity:1;fill-rule:nonzero;stroke:none"
         d="m 1749.19,296.055 42.58,42.675 v -38.39 z" /><path
         id="path28"
         style="fill:#ec0382;fill-opacity:1;fill-rule:nonzero;stroke:none"
         d="m 349.125,313.789 c -103.367,0.195 -187,83.84 -187.195,187.195 0.195,103.379 83.828,187.02 187.195,187.207 103.371,-0.187 187.004,-83.828 187.199,-187.207 -0.195,-103.355 -83.828,-187 -187.199,-187.195 z m 0,469.469 c -58.336,-0.004 -112.523,-17.707 -157.508,-48.02 -10.449,-7.039 -20.367,-14.804 -29.762,-23.144 -0.015,-0.008 -0.023,-0.024 -0.039,-0.039 v 6.086 c 0,32.011 -25.8,47.89 -70.8004,47.89 H 0 v -83.008 h 40.9961 c 14.0039,0 22.0117,-6.992 22.0117,-21.992 V 0 L 161.816,23.6719 V 289.941 c 49.829,-44.257 115.403,-71.171 187.309,-71.191 155.898,0.02 282.227,126.355 282.266,282.234 -0.039,155.907 -126.368,282.258 -282.266,282.274" /><path
         id="path30"
         style="fill:#880141;fill-opacity:1;fill-rule:nonzero;stroke:none"
         d="m 191.617,735.238 c -10.449,-7.039 -20.367,-14.804 -29.762,-23.144 v -82.211 l 29.762,105.355" /><path
         id="path32"
         style="fill:#880141;fill-opacity:1;fill-rule:nonzero;stroke:none"
         d="m 105.957,349.98 55.82,-108.769 v 48.516 z" /></g></g></svg>